<!-- Pyhwa logo by Kerogs -->
<svg id="Pyhwa_logo_svg" data-name="Pyhwa" xmlns="http://www.w3.org/2000/svg" viewBox="0 0 1003 876.37">
    <defs>
        <style>
            .cls-1 {
                fill: #fd8d47;
            }
        </style>
    </defs>
    <title>PyHwa</title>
    <path class="cls-1"
        d="M686.65,873.54c13.59-39.92,27.63-79.7,40.64-119.82,14.45-44.54,25-90,23.89-137.18a188,188,0,0,0-5.32-39.36c-8.25-34.27-36.2-66.75-88.09-55-46.38,10.45-89.9,28.55-132.81,48.29C395.25,630.09,271.78,701.35,149.08,774c-47,27.82-93.42,56.61-140.11,84.94-2.27,1.38-4.61,2.61-6.92,3.91-.37-.37-.74-.75-1.12-1.11,9.79-29.68,19.81-59.28,29.22-89.08A54.35,54.35,0,0,1,45,749.22c65.28-63.6,127.45-130,180.15-204.66,9.52-13.5,18.78-27.31,26.71-41.77C295.66,422.85,358.5,361.2,434.2,311.85c9.06-5.91,14.79-12.71,18-23.57,19.32-65.51,42.34-129.61,77.86-188.46,29-48.06,68.9-82.23,124.62-95C686.6-2.53,718.41-1.64,750,8.65c17.34,5.65,35.3,9.39,53,14.06a26.34,26.34,0,0,1,7.34,2.7c14,9,28.66,14,45.68,14.49,26,.82,52.08,2.29,77.67,6.42,17.48,2.82,34.65,9.52,51,16.73,7.07,3.12,11.63,11.89,18.36,19.22-5.08,2-8.2,3.41-11.4,4.56-45.78,16.54-91.75,32.57-137.31,49.72-28,10.5-47.34,29.15-55.7,59.45-13.47,48.68-11.25,95.77,4.88,143.55,38.84,115,43.49,230.8,3,346.7-21.35,61.11-57.28,113.63-97.29,163.67-6.81,8.51-14.1,16.64-21.17,24.94Zm-9.4-802.06C693.76,78.19,708.12,84.74,723,89.8c9,3.07,14.83-.55,15.91-7.38,2.33-14.77-10.1-28.64-25-27.18-12.8,1.25-23.91,7-36.66,16.24Z"
        transform="translate(-0.05 0)" />
    <path class="cls-1" d="M2.05,862.82l-2,.08L1,861.71C1.31,862.07,1.68,862.45,2.05,862.82Z"
        transform="translate(-0.05 0)" />
    <path class="cls-1" d="M688.06,874.88l-1.48,1.49c0-.94,0-1.88.07-2.83Z" transform="translate(-0.05 0)" />
</svg>