<svg id="Calque_1" data-name="Calque 1" xmlns="http://www.w3.org/2000/svg" viewBox="0 0 1002.95 876.37"><defs><style>.cls-1{fill:#fd8d47;}.cls-2{fill:#f98b46;}.cls-3{fill:#f88a46;}.cls-4{fill:#f78a46;}</style></defs><title>pywha</title><path class="cls-1" d="M686.65,873.54c13.59-39.92,27.63-79.7,40.64-119.82,14.45-44.54,25-90,23.89-137.18a188.2,188.2,0,0,0-5.32-39.36c-8.25-34.27-36.2-66.75-88.09-55-46.38,10.45-89.9,28.55-132.81,48.29C395.25,630.09,271.78,701.35,149.08,774c-47,27.82-93.42,56.61-140.11,84.94-2.27,1.38-4.61,2.61-6.92,3.91-.37-.37-.74-.75-1.12-1.11,9.79-29.68,19.81-59.28,29.22-89.08C33.1,763.3,38,756,45,749.22c65.28-63.6,127.45-130,180.15-204.66,9.52-13.5,18.78-27.31,26.71-41.77,43.8-79.94,106.64-141.59,182.34-190.94,9.06-5.91,14.79-12.71,18-23.57,19.32-65.51,42.34-129.61,77.86-188.46,29-48.06,68.9-82.23,124.62-95C686.6-2.53,718.41-1.64,750,8.65c17.34,5.65,35.3,9.39,53,14.06a26.13,26.13,0,0,1,7.34,2.7c14,9,28.66,14,45.68,14.49,25.95.82,52.08,2.29,77.67,6.42,17.48,2.82,34.65,9.52,51,16.73,7.07,3.12,11.63,11.89,18.36,19.22-5.08,2-8.2,3.41-11.4,4.56-45.78,16.54-91.75,32.57-137.31,49.72C826.32,147.05,807,165.7,798.64,196c-13.47,48.68-11.25,95.77,4.88,143.55,38.84,115,43.49,230.8,3,346.7-21.35,61.11-57.28,113.63-97.29,163.67-6.81,8.51-14.1,16.64-21.17,24.94Zm-9.4-802.06C693.76,78.19,708.12,84.74,723,89.8c9,3.07,14.83-.55,15.91-7.38,2.33-14.77-10.1-28.64-25-27.18C701.11,56.49,690,62.25,677.25,71.48Z"/><path class="cls-2" d="M441.71,677.7c2.88,13.69,5.64,27.42,8.68,41.08,4.17,18.76,4.27,18.74-12.75,27.24-3.67,1.82-7.38,3.57-11.56,5.58l-61.23-72.74a14.89,14.89,0,0,1,2.22-2c17.67-9.72,17.66-9.71,30.7,5.7,8.7,10.3,17.44,20.57,28.24,30-2-9.81-4.05-19.64-6.11-29.44s-4.17-19.52-6.32-29.59l27.67-13.79,39.07,44.94,1.85-.49c-.4-2.86-.61-5.77-1.24-8.59-3.14-14.1-6.08-28.27-9.77-42.23-1.57-5.93-.9-9.31,5.28-11.4,4.41-1.49,8.46-4.06,13.9-6.75,7.37,31.39,14.6,62.16,21.95,93.43-8.38,4.2-16.08,8.56-24.22,11.81-2.17.87-6.63-.78-8.42-2.74-10.37-11.32-20.29-23.05-30.25-34.73a73.35,73.35,0,0,1-4.83-7.19Z"/><path class="cls-2" d="M269.89,829.82c-14-28.07-27.71-55.4-42-83.91,13.51-6.27,26.15-13.27,39.58-18.07,15.76-5.63,28.81.52,35.42,14.57,6.3,13.38,2.4,26.64-11.06,36.13-4.77,3.37-10.1,5.93-16.08,9.38l15.42,31.27Zm-2.28-58.12c5.36-5.37,10.28-9.24,13.51-14.22.9-1.38-3.13-8.63-5-8.66-5.8-.1-11.64,2-18.41,3.39Z"/><path class="cls-3" d="M560.09,683.94,541,693.25l-44.9-89.06,19-9.75L531,625.27l4.72-5.13c12.61-13.8,31.51-13.38,41.6,2.29,8.39,13,14.68,27.4,22.15,41.64l-19.38,9.83C574.31,662.34,568.91,651,563,640c-4.79-8.89-14.45-9.87-18.74-1.65-1.81,3.48-1.63,9.24-.06,13C548.71,662.16,554.41,672.51,560.09,683.94Z"/><path class="cls-4" d="M306.51,735.54a13,13,0,0,1,1.39-1.46c18.15-10.69,18.15-10.68,33.84,3.51,4.75,4.29,9.53,8.55,16,14.38-.92-11.63-.95-21.22-2.63-30.5-1.53-8.43.77-13.29,8.89-15.82,3.26-1,6.27-2.84,10.43-4.78.59,6.45,1.13,11.91,1.59,17.37,2,23.2,4.14,46.39,5.79,69.62,1.11,15.52-4.32,24.08-16.94,29.89-7.1,3.26-12.29,3.32-14.76-5.44a40.78,40.78,0,0,0-2.95-6.45c4.61-3.73,10.11-6.33,12.63-10.66,3.21-5.53,1.93-11.6-3.75-16.44C339.47,764.64,323.19,750.14,306.51,735.54Z"/><path class="cls-3" d="M630.09,600.72c-10.54-6.49-16.22-4-22.4,9.12l-17.46-3.3c1.34-14.3,13.27-25.8,29.59-29.23,12.73-2.66,23.25,2.5,29.85,15.17,6.25,12,12.12,24.22,19.12,38.3-7.56,2.3-14.47,4.26-21.25,6.58-1.47.5-2.35,2.5-3.74,3.46-5.26,3.59-10.23,8.09-16,10.31-9,3.42-17.39-.13-22.4-7.68s-4.9-16.4,1.55-23.71c4.24-4.81,9.67-8.58,14.66-12.71C624,605,626.64,603.26,630.09,600.72Zm6.1,13.56c-4.73,3.75-9,6.69-12.68,10.31-1.18,1.18-1.31,4.46-.55,6.16.57,1.28,3.38,2.34,5.1,2.2C635.86,632.34,640.52,622.82,636.19,614.28Z"/><path class="cls-1" d="M2.05,862.82l-2,.08.93-1.19C1.31,862.07,1.68,862.45,2.05,862.82Z"/><path class="cls-1" d="M688.06,874.88l-1.48,1.49c0-.94,0-1.88.07-2.83Z"/></svg>